<?xml version="1.0" standalone="no"?>
<!DOCTYPE svg PUBLIC "-//W3C//DTD SVG 20010904//EN"
 "http://www.w3.org/TR/2001/REC-SVG-20010904/DTD/svg10.dtd">
<svg version="1.0" xmlns="http://www.w3.org/2000/svg"
 width="1320.000000pt" height="1320.000000pt" viewBox="0 0 1320.000000 1320.000000"
 preserveAspectRatio="xMidYMid meet">
<metadata>
Created by potrace 1.14, written by Peter Selinger 2001-2017
</metadata>
<g transform="translate(0.000000,1320.000000) scale(0.100000,-0.100000)"
fill="#000000" stroke="none">
<path d="M5075 7794 c-233 -43 -427 -144 -571 -296 -208 -218 -357 -508 -414
-803 -25 -134 -27 -350 -4 -463 61 -294 219 -499 489 -632 167 -82 274 -110
450 -117 118 -4 156 -2 244 17 217 44 429 152 631 320 155 128 345 327 494
517 l80 101 101 -137 c317 -426 540 -625 841 -751 124 -51 228 -70 400 -70
222 0 369 34 544 126 295 155 563 554 655 974 25 114 31 355 11 466 -68 393
-339 657 -763 743 -147 30 -329 29 -455 -3 -344 -87 -620 -310 -1016 -820 -51
-65 -97 -126 -102 -135 -6 -10 -12 -12 -17 -6 -249 339 -490 600 -682 738
-128 91 -311 181 -436 213 -129 33 -356 42 -480 18z m2883 -354 c298 -38 568
-196 721 -423 126 -186 195 -476 161 -675 -29 -176 -128 -300 -312 -390 -195
-97 -408 -136 -616 -114 -385 40 -710 276 -1105 803 -48 64 -87 119 -87 124 0
15 117 151 221 256 322 325 659 463 1017 419z m-2683 -15 c168 -36 341 -114
495 -222 132 -94 385 -350 538 -546 l124 -157 -30 -38 c-16 -20 -76 -82 -133
-137 -416 -403 -791 -548 -1201 -465 -388 79 -673 335 -769 690 -27 96 -36
289 -20 401 22 149 69 224 200 311 129 88 276 145 427 167 97 14 293 12 369
-4z"/>
<path d="M3205 7298 c-27 -29 -64 -79 -80 -111 l-30 -57 -5 41 c-4 32 -11 44
-27 50 -26 9 -58 -15 -49 -37 3 -8 1 -24 -4 -36 -9 -21 -10 -21 -9 -3 1 11 -2
35 -6 53 -11 48 -25 21 -25 -50 0 -31 -5 -60 -11 -63 -6 -4 -8 -13 -5 -21 3
-7 1 -16 -4 -19 -6 -4 -10 20 -10 59 0 84 -17 86 -23 4 -8 -97 4 -858 13 -883
9 -24 26 -216 22 -255 -4 -44 10 -53 98 -58 l82 -5 -7 108 -8 108 88 -97 c48
-53 96 -101 107 -107 16 -9 38 -6 99 12 44 13 79 29 79 34 0 6 -34 44 -76 85
-42 41 -96 101 -120 133 l-45 57 35 44 c72 88 192 322 246 481 60 174 64 334
13 434 -25 48 -37 59 -113 102 -66 38 -95 48 -129 49 -41 0 -49 -4 -96 -52z
m187 -150 c4 -125 -18 -237 -79 -392 -41 -104 -145 -314 -173 -348 -19 -23
-19 -23 -14 37 17 198 86 471 153 602 35 69 87 143 101 143 6 0 11 -19 12 -42z
m-385 -75 c-3 -10 -5 -2 -5 17 0 19 2 27 5 18 2 -10 2 -26 0 -35z m235 -655
c-18 -18 -14 -32 5 -17 15 13 15 12 3 -11 -7 -14 -22 -38 -33 -54 l-20 -29
-19 23 c-14 17 -16 26 -7 36 6 8 17 14 24 14 7 0 20 11 29 25 9 14 20 25 23
25 4 0 2 -5 -5 -12z m-248 -292 c4 -33 4 -57 0 -53 -10 10 -25 98 -18 109 9
14 11 9 18 -56z"/>
<path d="M9590 7341 c-68 -7 -71 -17 -34 -111 l27 -70 82 0 82 0 7 -77 c9
-108 8 -145 -4 -138 -6 4 -10 -10 -10 -35 0 -25 4 -39 10 -35 6 4 10 -21 10
-67 0 -110 -12 -298 -19 -294 -7 5 -8 1 -22 -281 -8 -145 -9 -248 -3 -275 l9
-43 65 -3 c112 -5 105 -17 106 170 2 207 22 880 30 1016 l6 102 38 0 c21 0 43
7 50 15 10 12 39 15 141 15 86 0 130 4 135 12 4 7 3 8 -4 4 -7 -4 -12 -2 -12
3 0 6 -12 11 -27 11 -14 0 -24 2 -22 4 4 4 49 13 75 15 6 1 11 11 10 23 -1 21
-9 24 -81 35 -82 12 -543 15 -645 4z m603 -68 c-7 -2 -21 -2 -30 0 -10 3 -4 5
12 5 17 0 24 -2 18 -5z"/>
<path d="M2926 7212 c-4 -13 -5 -26 -2 -29 10 -11 18 4 14 29 l-4 23 -8 -23z"/>
<path d="M9738 6803 c-2 -27 -1 -64 3 -83 5 -25 7 -11 8 48 1 90 -5 109 -11
35z"/>
</g>
</svg>
